<?xml version="1.0" standalone="no"?><!DOCTYPE svg PUBLIC "-//W3C//DTD SVG 1.1//EN" "http://www.w3.org/Graphics/SVG/1.1/DTD/svg11.dtd"><svg t="1599694629487" class="icon" viewBox="0 0 1024 1024" version="1.1" xmlns="http://www.w3.org/2000/svg" p-id="9481" xmlns:xlink="http://www.w3.org/1999/xlink" width="200" height="200"><defs><style type="text/css"></style></defs><path d="M192.818623 905.766231l148.257711 87.567829c47.219908 17.577966 97.879809 28.067945 150.695706 30.213941l138.495729-13.955973a487.333048 487.333048 0 0 0 146.447714-63.193876l155.897695-160.949686c44.041914-73.513856 69.381864-159.517688 69.381865-251.449509 0-270.617471-219.379572-489.997043-489.997043-489.997043S22.002957 263.383486 22.002957 534.002957c0 148.69171 66.243871 281.901449 170.815666 371.763274z" fill="#3B3868" p-id="9482"></path><path d="M592.441843 460.9551a19.437962 19.437962 0 0 1-13.023975-4.989991c-8.019984-7.195986-8.687983-19.531962-1.489997-27.551946L808.621421 171.319665c7.197986-8.019984 19.531962-8.687983 27.551946-1.489997 8.019984 7.195986 8.687983 19.531962 1.489997 27.551946L606.969815 454.475112a19.463962 19.463962 0 0 1-14.527972 6.479988z" fill="#FFDD40" p-id="9483"></path><path d="M306.714401 586.030855a19.519962 19.519962 0 0 1-18.367964-12.935974c-3.635993-10.14398 1.641997-21.313958 11.785977-24.947952l212.027586-75.975851c10.14398-3.631993 21.313958 1.641997 24.947951 11.785977s-1.641997 21.313958-11.785977 24.947951l-212.027586 75.975852a19.453962 19.453962 0 0 1-6.579987 1.149997z" fill="#FF7186" p-id="9484"></path><path d="M125.384755 458.213105h-22.399956a14.633971 14.633971 0 0 1 0-29.267943h22.401956a14.633971 14.633971 0 1 1-0.002 29.267943z" fill="#8686BF" p-id="9485"></path><path d="M176.112656 503.413017H102.984799a14.633971 14.633971 0 0 1 0-29.267943h73.129857a14.633971 14.633971 0 1 1-0.002 29.267943zM176.112656 548.612928H102.984799a14.633971 14.633971 0 0 1 0-29.265942h73.129857a14.633971 14.633971 0 1 1-0.002 29.265942z" fill="#5F5F9B" p-id="9486"></path><path d="M418.334183 352.189312h-22.399956a14.633971 14.633971 0 0 1 0-29.267943h22.399956a14.633971 14.633971 0 0 1 0 29.267943z" fill="#8686BF" p-id="9487"></path><path d="M469.062084 397.389224h-73.127857a14.633971 14.633971 0 0 1 0-29.265943h73.127857a14.633971 14.633971 0 1 1 0 29.265943zM469.062084 442.591136h-73.127857a14.633971 14.633971 0 0 1 0-29.265943h73.127857a14.633971 14.633971 0 1 1 0 29.265943z" fill="#5F5F9B" p-id="9488"></path><path d="M711.281611 29.265943h-22.399956a14.633971 14.633971 0 0 1 0-29.265943h22.399956a14.633971 14.633971 0 0 1 0 29.265943z" fill="#8686BF" p-id="9489"></path><path d="M762.009512 74.465855h-73.127857a14.633971 14.633971 0 0 1 0-29.267943h73.127857a14.631971 14.631971 0 0 1 14.631971 14.633971 14.631971 14.631971 0 0 1-14.631971 14.633972zM762.009512 119.665766h-73.127857a14.633971 14.633971 0 0 1 0-29.265943h73.127857a14.631971 14.631971 0 0 1 14.631971 14.631972 14.631971 14.631971 0 0 1-14.631971 14.633971z" fill="#5F5F9B" p-id="9490"></path><path d="M812.907412 336.171343c12.853975 4.203992 26.559948 6.507987 40.799921 6.507988s27.945945-2.303996 40.79992-6.507988l35.401931 78.509847a38.837924 38.837924 0 0 1 5.739989 20.32196v3.321994c-0.244-0.004-0.481999-0.036-0.727999-0.036-14.149972 0-26.605948 7.177986-33.955934 18.089965-1.493997 2.215996-3.869992 3.345993-6.285987 3.451993-2.659995 0.118-5.36999-1.009998-7.013987-3.451993-16.231968-24.095953-51.659899-24.125953-67.913867 0-1.643997 2.439995-4.353991 3.567993-7.013986 3.451993-2.415995-0.106-4.793991-1.233998-6.285988-3.451993-7.349986-10.911979-19.807961-18.089965-33.955934-18.089965-0.246 0-0.483999 0.032-0.727998 0.036v-3.321994c0-7.173986 1.985996-14.207972 5.739988-20.32196z" fill="#FCF9EB" p-id="9491"></path><path d="M853.707333 435.36315c-26.049949-8.601983-21.309958-28.473944-21.309959-28.473945s9.495981-34.749932 16.667968-64.303874a131.037744 131.037744 0 0 1-36.15593-6.413988l-35.401931 78.509847a38.839924 38.839924 0 0 0-5.739988 20.32396v3.321994c0.246-0.004 0.481999-0.036 0.727998-0.036 14.147972 0 26.605948 7.177986 33.955934 18.089965 1.491997 2.215996 3.869992 3.343993 6.285988 3.451993 2.659995 0.118 5.36999-1.009998 7.013986-3.451993 9.125982-13.547974 24.297953-19.475962 38.723924-17.805966-1.025998-1.391997-2.575995-2.487995-4.76799-3.211993z" fill="#FCECA9" p-id="9492"></path><path d="M853.707333 345.605325a134.259738 134.259738 0 0 1-42.017918-6.731987l28.683944-63.611876c5.05399-11.677977 21.615958-11.677977 26.669948 0l28.683944 63.611876a134.283738 134.283738 0 0 1-42.019918 6.731987z" fill="#8686BF" p-id="9493"></path><path d="M867.043307 275.261462c-5.05399-11.679977-21.615958-11.679977-26.669948 0l-28.683944 63.611876a134.297738 134.297738 0 0 0 36.665928 6.623987c2.013996-8.219984 3.879992-16.145968 5.35199-22.941955 6.643987-30.66594 23.673954-24.359952 23.673953-24.359952z" fill="#5F5F9B" p-id="9494"></path><path d="M519.959984 660.924709c12.853975 4.203992 26.559948 6.507987 40.799921 6.507987s27.945945-2.303996 40.79992-6.507987l35.401931 78.509847a38.839924 38.839924 0 0 1 5.741989 20.32396v3.321994c-0.244-0.004-0.481999-0.036-0.727999-0.036-14.149972 0-26.605948 7.177986-33.955934 18.089964-1.493997 2.215996-3.869992 3.343993-6.285987 3.451994-2.659995 0.118-5.36999-1.009998-7.013987-3.451994-16.231968-24.095953-51.659899-24.125953-67.913867 0-1.643997 2.439995-4.353991 3.567993-7.013986 3.451994-2.415995-0.106-4.791991-1.233998-6.285988-3.451994-7.349986-10.911979-19.807961-18.089965-33.955934-18.089964-0.246 0-0.483999 0.032-0.727998 0.036v-3.321994c0-7.173986 1.985996-14.207972 5.739989-20.32396z" fill="#FCF9EB" p-id="9495"></path><path d="M560.757905 760.116515c-26.049949-8.601983-21.309958-28.473944-21.309959-28.473944s9.495981-34.747932 16.667968-64.303874a131.049744 131.049744 0 0 1-36.15593-6.413988l-35.40193 78.509847a38.839924 38.839924 0 0 0-5.739989 20.32396v3.321994c0.246-0.004 0.481999-0.036 0.727998-0.036 14.147972 0 26.605948 7.177986 33.955934 18.089964 1.493997 2.215996 3.869992 3.343993 6.285988 3.451994 2.659995 0.118 5.36999-1.009998 7.013986-3.451994 9.125982-13.547974 24.297953-19.475962 38.723924-17.805965-1.023998-1.391997-2.575995-2.487995-4.76799-3.211994z" fill="#FCECA9" p-id="9496"></path><path d="M560.757905 670.358691a134.259738 134.259738 0 0 1-42.017918-6.731987l28.683944-63.611876c5.05399-11.679977 21.615958-11.679977 26.669948 0l28.683944 63.611876a134.283738 134.283738 0 0 1-42.019918 6.731987z" fill="#8686BF" p-id="9497"></path><path d="M574.093879 600.014828c-5.05399-11.679977-21.615958-11.679977-26.669948 0l-28.683944 63.611876a134.283738 134.283738 0 0 0 36.665928 6.623987c2.013996-8.219984 3.879992-16.145968 5.35199-22.941955 6.643987-30.66394 23.673954-24.359952 23.673954-24.359953z" fill="#5F5F9B" p-id="9498"></path><path d="M227.010557 765.118506c12.853975 4.203992 26.559948 6.507987 40.79992 6.507987s27.945945-2.303996 40.79992-6.507987l35.401931 78.509846a38.839924 38.839924 0 0 1 5.739989 20.323961v3.321993c-0.244-0.004-0.481999-0.036-0.727999-0.036-14.149972 0-26.605948 7.177986-33.955933 18.089965-1.493997 2.215996-3.869992 3.343993-6.285988 3.451993-2.659995 0.118-5.36999-1.009998-7.013986-3.451993-16.231968-24.095953-51.659899-24.125953-67.913868 0-1.643997 2.439995-4.353991 3.567993-7.013986 3.451993-2.415995-0.106-4.791991-1.233998-6.285988-3.451993-7.349986-10.911979-19.807961-18.089965-33.955933-18.089965-0.246 0-0.483999 0.032-0.727999 0.036v-3.321993c0-7.173986 1.985996-14.209972 5.739989-20.323961z" fill="#FCF9EB" p-id="9499"></path><path d="M267.810477 864.310312c-26.049949-8.601983-21.309958-28.473944-21.309958-28.473944s9.495981-34.749932 16.667967-64.303875a131.037744 131.037744 0 0 1-36.155929-6.413987l-35.401931 78.509846a38.839924 38.839924 0 0 0-5.739989 20.323961v3.321993c0.246-0.004 0.481999-0.036 0.727999-0.036 14.149972 0 26.605948 7.177986 33.955933 18.089965 1.493997 2.215996 3.869992 3.343993 6.285988 3.451993 2.659995 0.118 5.36999-1.009998 7.013986-3.451993 9.125982-13.547974 24.297953-19.475962 38.723925-17.805965-1.025998-1.393997-2.575995-2.487995-4.767991-3.211994z" fill="#FCECA9" p-id="9500"></path><path d="M267.810477 774.552487a134.259738 134.259738 0 0 1-42.017918-6.731987l28.683944-63.611875c5.05399-11.679977 21.615958-11.679977 26.669948 0l28.683944 63.611875a134.291738 134.291738 0 0 1-42.019918 6.731987z" fill="#8686BF" p-id="9501"></path><path d="M281.144451 704.208625c-5.05399-11.679977-21.615958-11.679977-26.669948 0l-28.683944 63.611875a134.283738 134.283738 0 0 0 36.665928 6.623987c2.013996-8.219984 3.879992-16.145968 5.35199-22.941955 6.643987-30.66594 23.673954-24.361952 23.675954-24.359952z" fill="#5F5F9B" p-id="9502"></path><path d="M544.751568 523.729422a50.727901 50.727901 0 1 0 32.058028-96.257793 50.727901 50.727901 0 1 0-32.058028 96.257793Z" fill="#FF4155" p-id="9503"></path><path d="M565.892252 485.959087a25.36395 25.36395 0 1 0 8.110437-50.075351 25.36395 25.36395 0 1 0-8.110437 50.075351Z" fill="#FF7186" p-id="9504"></path><path d="M808.87742 454.743112a43.823914 43.823914 0 0 0-36.383929-19.381962c-0.244 0-0.483999 0.026-0.727998 0.03v514.118995a491.67304 491.67304 0 0 0 40.96992-28.655944V456.903108c-1.585997-0.106-2.981994-0.861998-3.857993-2.159996z" fill="#FFB332" p-id="9505"></path><path d="M812.737413 641.876746a10.997979 10.997979 0 0 0-7.191986 1.801997c-11.089978 7.395986-20.147961 4.91599-26.083949 1.145998a10.44598 10.44598 0 0 0-7.695985-1.409998v306.097402a491.70504 491.70504 0 0 0 40.97192-28.655944z" fill="#FF9100" p-id="9506"></path><path d="M894.677253 840.008359V456.903108c-0.124 0.008-0.238 0.042-0.364 0.042-1.741997 0-3.279994-0.803998-4.221991-2.201996-8.175984-12.133976-21.775957-19.381962-36.383929-19.381962s-28.207945 7.245986-36.383929 19.381962c-0.941998 1.397997-2.479995 2.201996-4.221992 2.201996-0.126 0-0.24-0.034-0.363999-0.042v463.951093a492.889037 492.889037 0 0 0 81.93984-80.845842z" fill="#FFDD40" p-id="9507"></path><path d="M894.677253 840.008359v-197.971613a10.535979 10.535979 0 0 0-7.357986 2.381995c-32.637936 27.095947-57.471888 10.893979-68.427866 0.28a10.22198 10.22198 0 0 0-6.153988-2.819995v278.977455a493.055037 493.055037 0 0 0 81.93984-80.847842zM935.649173 780.318476V435.39315c-0.244-0.004-0.483999-0.032-0.727999-0.032a43.819914 43.819914 0 0 0-36.383929 19.381962c-0.873998 1.297997-2.271996 2.053996-3.857992 2.159996v383.103251a491.119041 491.119041 0 0 0 40.96992-59.687883z" fill="#FFB332" p-id="9508"></path><path d="M935.649173 641.422747a10.37598 10.37598 0 0 0-6.577988 1.937996c-13.003975 9.409982-22.747956 5.545989-28.485944 0.911999a10.26598 10.26598 0 0 0-5.907988-2.235996v197.971613a490.931041 490.931041 0 0 0 40.97192-59.689883z" fill="#FF9100" p-id="9509"></path><path d="M515.929992 779.496478a43.819914 43.819914 0 0 0-36.383929-19.381963c-0.244 0-0.483999 0.026-0.727998 0.03v262.709487c10.967979 0.735999 22.027957 1.143998 33.181935 1.143998 2.603995 0 5.19399-0.058 7.787985-0.098V781.656473c-1.587997-0.106-2.983994-0.861998-3.857993-2.159995z" fill="#FF4155" p-id="9510"></path><path d="M519.787985 1023.9v-114.889775a8.193984 8.193984 0 0 0-5.42199 1.611996c-13.015975 9.725981-23.449954 5.723989-29.565942 1.183998a8.299984 8.299984 0 0 0-5.983988-1.585997v112.63378c10.969979 0.735999 22.029957 1.143998 33.183935 1.143998 2.603995 0 5.19399-0.058 7.787985-0.098z" fill="#E80054" p-id="9511"></path><path d="M597.143834 779.496478c-8.175984-12.135976-21.775957-19.381962-36.383929-19.381963s-28.207945 7.245986-36.383929 19.381963c-0.943998 1.397997-2.479995 2.201996-4.221992 2.201995-0.126 0-0.24-0.034-0.363999-0.042v242.243527c27.943945-0.435999 55.319892-3.199994 81.94184-8.127984V781.656473c-0.124 0.008-0.238 0.042-0.364 0.042-1.743997 0.002-3.281994-0.801998-4.223991-2.201995z" fill="#FF7186" p-id="9512"></path><path d="M601.729825 908.964225a7.939984 7.939984 0 0 0-5.715989 1.515997c-35.60393 26.677948-61.22188 10.01398-71.387861 0.583999a7.775985 7.775985 0 0 0-4.83599-2.051996v114.889775a492.283039 492.283039 0 0 0 81.93984-8.127984zM605.587817 779.496478c-0.873998 1.297997-2.271996 2.053996-3.857992 2.159995v234.115543a486.893049 486.893049 0 0 0 40.97192-9.429982V760.146515c-0.244-0.004-0.483999-0.032-0.727999-0.032a43.829914 43.829914 0 0 0-36.385929 19.381963z" fill="#FF4155" p-id="9513"></path><path d="M642.699745 908.882225a7.989984 7.989984 0 0 0-5.23999 1.643997c-14.547972 11.195978-25.48795 5.541989-31.225939 0.435999a8.151984 8.151984 0 0 0-4.505991-1.997996v106.807791a486.893049 486.893049 0 0 0 40.97192-9.429982z" fill="#E80054" p-id="9514"></path><path d="M222.980564 883.690274a43.819914 43.819914 0 0 0-36.383928-19.381962c-0.244 0-0.483999 0.026-0.727999 0.03v35.321931a491.791039 491.791039 0 0 0 40.96992 32.833936v-46.645909c-1.585997-0.104-2.981994-0.859998-3.857993-2.157996z" fill="#42C3FC" p-id="9515"></path><path d="M304.194406 883.690274c-8.175984-12.135976-21.775957-19.381962-36.383929-19.381962s-28.207945 7.245986-36.383929 19.381962c-0.943998 1.397997-2.479995 2.201996-4.221992 2.201996-0.126 0-0.24-0.034-0.363999-0.042v46.645909a489.469044 489.469044 0 0 0 81.94184 47.483907v-94.129816c-0.124 0.008-0.238 0.042-0.363999 0.042-1.743997 0.002-3.281994-0.801998-4.223992-2.201996z" fill="#8AE1FF" p-id="9516"></path><path d="M303.222408 936.82617c-21.813957 15.853969-40.059922 15.753969-53.245896 11.241978a488.545046 488.545046 0 0 0 58.803885 31.911938v-44.865912a9.017982 9.017982 0 0 0-5.557989 1.711996zM312.638389 883.690274c-0.873998 1.297997-2.271996 2.053996-3.857992 2.159996v94.129816a486.787049 486.787049 0 0 0 40.97192 16.477968v-132.117742c-0.244-0.004-0.483999-0.032-0.727999-0.032a43.829914 43.829914 0 0 0-36.385929 19.381962z" fill="#42C3FC" p-id="9517"></path><path d="M349.752317 936.610171a9.279982 9.279982 0 0 0-6.665987 1.309997c-12.345976 7.843985-23.283955 3.031994-29.329943-1.185998a9.089982 9.089982 0 0 0-4.97599-1.619996v44.865912a487.059049 487.059049 0 0 0 40.97192 16.477968z" fill="#1AA9E8" p-id="9518"></path><path d="M256.059556 629.655833a50.727901 50.727901 0 1 0 23.339881-98.734643 50.727901 50.727901 0 1 0-23.339881 98.734643Z" fill="#42C3FC" p-id="9519"></path><path d="M272.988821 590.106929a25.36395 25.36395 0 1 0 8.110437-50.075351 25.36395 25.36395 0 1 0-8.110437 50.075351Z" fill="#8AE1FF" p-id="9520"></path><path d="M842.209689 200.748801a50.727901 50.727901 0 1 0 23.339881-98.734643 50.727901 50.727901 0 1 0-23.339881 98.734643Z" fill="#FFB332" p-id="9521"></path><path d="M858.818325 161.290279a25.36395 25.36395 0 1 0 8.110437-50.075351 25.36395 25.36395 0 1 0-8.110437 50.075351Z" fill="#FFDD40" p-id="9522"></path></svg>