<?xml version="1.0" standalone="no"?><!DOCTYPE svg PUBLIC "-//W3C//DTD SVG 1.1//EN" "http://www.w3.org/Graphics/SVG/1.1/DTD/svg11.dtd"><svg t="1599813295970" class="icon" viewBox="0 0 1024 1024" version="1.1" xmlns="http://www.w3.org/2000/svg" p-id="5332" xmlns:xlink="http://www.w3.org/1999/xlink" width="200" height="200"><defs><style type="text/css"></style></defs><path d="M511.994264 511.994264m-511.994264 0a511.994264 511.994264 0 1 0 1023.988529 0 511.994264 511.994264 0 1 0-1023.988529 0Z" fill="#28176D" p-id="5333"></path><path d="M460.821222 577.070407H277.958753V372.940325h182.862469z" fill="#FFFFFF" p-id="5334"></path><path d="M528.053951 354.838765h-67.232729v222.231642h290.50825V354.838765H528.053951zM468.105436 781.200488H277.958753V577.070407h190.146683z" fill="#F8C642" p-id="5335"></path><path d="M739.330592 781.200488H460.821222v-204.187437h290.50825v192.188558a11.99888 11.99888 0 0 1-11.99888 11.998879z" fill="#7B49B6" p-id="5336"></path><path d="M689.01789 372.940325H277.958753V168.810243h411.059137z" fill="#FC3A64" p-id="5337"></path><path d="M751.329472 372.940325H528.065422V168.810243h223.26405z" fill="#FFFFFF" p-id="5338"></path><path d="M272.670528 168.741416h65.649702v612.562313H272.670528z" fill="#7B49B6" p-id="5339"></path><path d="M272.670528 781.303729v73.954855l27.691487-20.453158 28.781252 20.453158V781.303729H272.670528z" fill="#F8C642" p-id="5340"></path></svg>